<?xml version="1.0" encoding="UTF-8"?>
<svg version="1.1" xmlns="http://www.w3.org/2000/svg" width="512" height="512">
<path d="M0 0 C2.65527344 1.25244141 2.65527344 1.25244141 5.359375 2.8515625 C6.88884766 3.74584961 6.88884766 3.74584961 8.44921875 4.65820312 C10.08310547 5.63176758 10.08310547 5.63176758 11.75 6.625 C12.90697352 7.30502178 14.06453713 7.98404047 15.22265625 8.66210938 C17.62665148 10.07067324 20.02805773 11.48350641 22.42773438 12.89941406 C27.9283488 16.14016978 33.46603409 19.31666323 39 22.5 C41.16684034 23.74969892 43.3335065 24.99969989 45.5 26.25 C47.10875 27.178125 47.10875 27.178125 48.75 28.125 C86.66666667 50 124.58333333 71.875 162.5 93.75 C163.57378906 94.3694751 164.64757812 94.9889502 165.75390625 95.62719727 C167.9076172 96.86976019 170.06126367 98.11243489 172.21484375 99.35522461 C177.23684262 102.25314623 182.25942807 105.15003349 187.28442383 108.04275513 C189.05045522 109.05947198 190.81627431 110.07655658 192.58203125 111.09375 C194.78734155 112.36400873 196.99304216 113.63359018 199.19921875 114.90234375 C200.20597656 115.48242188 201.21273438 116.0625 202.25 116.66015625 C203.12140625 117.16168213 203.9928125 117.66320801 204.890625 118.17993164 C205.91671875 118.7805542 206.9428125 119.38117676 208 120 C208.80812806 120.36977514 209.61625613 120.73955028 210.44887292 121.12053072 C217.43085579 124.61363684 217.43085579 124.61363684 218.92203641 128.24596381 C219.26446112 131.04538844 219.28580385 133.69678146 219.20254517 136.51620483 C219.21536154 138.10422942 219.21536154 138.10422942 219.22843683 139.72433531 C219.24491358 143.27285966 219.1899198 146.8166576 219.13525391 150.36474609 C219.13243323 152.90746957 219.13401638 155.45020119 219.13967896 157.99291992 C219.14195627 163.46753469 219.11359769 168.94062679 219.05730057 174.41492844 C218.9759616 182.32944541 218.94997973 190.2433864 218.93742065 198.15827604 C218.91554454 210.99988736 218.84902431 223.84086278 218.75439453 236.68212891 C218.66257704 249.15475283 218.59180667 261.62720392 218.54931641 274.10009766 C218.54668917 274.86916617 218.54406194 275.63823469 218.54135509 276.43060832 C218.52830453 280.28887381 218.51566749 284.14714052 218.50323606 288.00540805 C218.39960068 320.0040675 218.22349846 352.00194541 218 384 C133.5 432.75 133.5 432.75 130.24951172 434.62524414 C128.08442929 435.87435518 125.91939018 437.12354129 123.75439453 438.37280273 C118.31384294 441.51202309 112.87252784 444.64990563 107.4296875 447.78515625 C96.97793801 453.80747329 86.53700452 459.84669337 76.125 465.9375 C66.85903466 471.35685334 57.55007991 476.69795389 48.22363281 482.01217651 C39.83046855 486.7956841 31.4656164 491.6252791 23.125 496.5 C22.13773926 497.07435791 21.15047852 497.64871582 20.13330078 498.24047852 C15.93505148 500.68487039 11.74904718 503.14106486 7.609375 505.68359375 C6.96597168 506.07160156 6.32256836 506.45960938 5.65966797 506.859375 C4.03428381 507.84127602 2.41890271 508.83968751 0.8046875 509.83984375 C-2.70202868 511.29039348 -4.33661894 510.87041391 -8 510 C-10.65527344 508.74755859 -10.65527344 508.74755859 -13.359375 507.1484375 C-14.88884766 506.25415039 -14.88884766 506.25415039 -16.44921875 505.34179688 C-17.53847656 504.69275391 -18.62773437 504.04371094 -19.75 503.375 C-20.90697352 502.69497822 -22.06453713 502.01595953 -23.22265625 501.33789062 C-25.62665148 499.92932676 -28.02805773 498.51649359 -30.42773438 497.10058594 C-35.9283488 493.85983022 -41.46603409 490.68333677 -47 487.5 C-49.16684034 486.25030108 -51.3335065 485.00030011 -53.5 483.75 C-54.5725 483.13125 -55.645 482.5125 -56.75 481.875 C-74.625 471.5625 -74.625 471.5625 -92.5 461.25 C-93.57266113 460.63116943 -94.64532227 460.01233887 -95.75048828 459.37475586 C-97.91557071 458.12564482 -100.08060982 456.87645871 -102.24560547 455.62719727 C-107.68615706 452.48797691 -113.12747216 449.35009437 -118.5703125 446.21484375 C-129.02206199 440.19252671 -139.46299548 434.15330663 -149.875 428.0625 C-159.14032389 422.64352182 -168.44887288 417.30324113 -177.77435303 411.98883057 C-203.72756413 397.19489999 -203.72756413 397.19489999 -211.06074142 392.62763309 C-213.94126298 390.90547043 -213.94126298 390.90547043 -217.10811234 390.0184164 C-221.07046917 388.52305193 -223.19533859 387.2111396 -226 384 C-228.4065628 376.24945346 -227.51057373 367.5288711 -227.36230469 359.52172852 C-227.3589193 356.97885804 -227.36082078 354.43597583 -227.36761475 351.89311218 C-227.37034618 346.42097277 -227.33635448 340.95102926 -227.26876068 335.47934151 C-227.17110247 327.56879096 -227.13997083 319.6590699 -227.12490478 311.7479819 C-227.09866115 298.91232703 -227.01885885 286.07758891 -226.90527344 273.24243164 C-226.79507183 260.77665789 -226.71015785 248.31113342 -226.65917969 235.8449707 C-226.65602701 235.07616491 -226.65287432 234.30735911 -226.64962611 233.51525617 C-226.6339653 229.6582618 -226.61880089 225.80126566 -226.60388327 221.94426835 C-226.47954494 189.96217935 -226.26824439 157.98121709 -226 126 C-63.5 32.25 -63.5 32.25 -60.24658203 30.37304688 C-58.09128689 29.1295949 -55.93601327 27.88610564 -53.78076172 26.64257812 C-48.77662326 23.75537125 -43.7722948 20.8684957 -38.76715088 17.98303223 C-37.01658759 16.97380896 -35.26609589 15.96446164 -33.515625 14.95507812 C-31.33607835 13.6983234 -29.15640168 12.44179414 -26.9765625 11.18554688 C-25.47609375 10.32026367 -25.47609375 10.32026367 -23.9453125 9.4375 C-22.96852539 8.87933594 -21.99173828 8.32117187 -20.98535156 7.74609375 C-18.89766292 6.5250315 -16.8333069 5.26358928 -14.78808594 3.97265625 C-13.74168945 3.32167969 -12.69529297 2.67070313 -11.6171875 2 C-10.68245605 1.401875 -9.74772461 0.80375 -8.78466797 0.1875 C-5.29272615 -1.30161143 -3.61820457 -1.04975891 0 0 Z " fill="#5ED990" transform="translate(260,1)"/>
<path d="M0 0 C1.47949219 2.08764648 1.47949219 2.08764648 3.046875 4.87109375 C3.93149414 6.42473633 3.93149414 6.42473633 4.83398438 8.00976562 C5.46626953 9.14091797 6.09855469 10.27207031 6.75 11.4375 C7.41895566 12.61838641 8.0888934 13.79871698 8.75976562 14.97851562 C10.15421893 17.43258956 11.54439313 19.88901404 12.93164062 22.34716797 C16.08167162 27.92079499 19.29378813 33.45857174 22.5 39 C23.75029642 41.16649563 25.00029538 43.33316295 26.25 45.5 C26.86875 46.5725 27.4875 47.645 28.125 48.75 C45 78 61.875 107.25 78.75 136.5 C79.36963623 137.57403076 79.98927246 138.64806152 80.62768555 139.75463867 C81.86875254 141.90583224 83.10980093 144.05703655 84.35083008 146.20825195 C87.26498344 151.25962999 90.17931818 156.3109031 93.09432983 161.36178589 C94.12673478 163.15066918 95.15907956 164.93958717 96.19140625 166.72851562 C97.48685948 168.97337636 98.7824257 171.2181719 100.078125 173.46289062 C101.2219008 175.44501637 102.36441823 177.42786907 103.50537109 179.41162109 C104.43293112 181.01795749 105.36695074 182.62060459 106.31103516 184.21728516 C109 188.79076325 109 188.79076325 109 191 C36.4 191 -36.2 191 -111 191 C-102.28227777 206.9094974 -102.28227777 206.9094974 -93.25 222.625 C-92.05542873 224.66112939 -90.861439 226.69760005 -89.66796875 228.734375 C-89.0651709 229.76240234 -88.46237305 230.79042969 -87.84130859 231.84960938 C-84.72654922 237.17881317 -81.64418136 242.52662075 -78.5625 247.875 C-77.94020508 248.95475098 -77.31791016 250.03450195 -76.67675781 251.14697266 C-75.41471274 253.33714534 -74.15283148 255.52741243 -72.89111328 257.71777344 C-69.76319852 263.14659942 -66.63141552 268.57319281 -63.5 274 C-62.24998121 276.16665583 -60.99998122 278.3333225 -59.75 280.5 C-59.13125 281.5725 -58.5125 282.645 -57.875 283.75 C-37.25 319.5 -37.25 319.5 -35.37353516 322.75268555 C-34.12858718 324.91049803 -32.8834711 327.06821353 -31.63818359 329.22583008 C-28.43447349 334.77716592 -25.2340637 340.33036541 -22.0390625 345.88671875 C-20.73455203 348.15374771 -19.42986738 350.42067645 -18.125 352.6875 C-17.50165771 353.77095703 -16.87831543 354.85441406 -16.23608398 355.97070312 C-12.39015037 362.63925068 -8.49542782 369.27387986 -4.43603516 375.81518555 C-2 379.78854186 -2 379.78854186 -2 382 C-1.34 382.33 -0.68 382.66 0 383 C-0.33 425.24 -0.66 467.48 -1 511 C-5.28456404 509.57181199 -8.1910008 508.48701477 -11.921875 506.26953125 C-12.85112793 505.72176025 -13.78038086 505.17398926 -14.73779297 504.60961914 C-15.73182129 504.01656982 -16.72584961 503.42352051 -17.75 502.8125 C-19.91367549 501.53580222 -22.07775166 500.25978329 -24.2421875 498.984375 C-25.35819336 498.32501953 -26.47419922 497.66566406 -27.62402344 496.98632812 C-33.0212633 493.81074644 -38.44764 490.6862344 -43.875 487.5625 C-46.05991376 486.30341652 -48.24480949 485.04430177 -50.4296875 483.78515625 C-51.51475586 483.16012207 -52.59982422 482.53508789 -53.71777344 481.89111328 C-59.14659942 478.76319852 -64.57319281 475.63141552 -70 472.5 C-72.16665583 471.24998121 -74.3333225 469.99998122 -76.5 468.75 C-80.83333333 466.25 -85.16666667 463.75 -89.5 461.25 C-90.57266113 460.63116943 -91.64532227 460.01233887 -92.75048828 459.37475586 C-94.91557071 458.12564482 -97.08060982 456.87645871 -99.24560547 455.62719727 C-104.68615706 452.48797691 -110.12747216 449.35009437 -115.5703125 446.21484375 C-126.02206199 440.19252671 -136.46299548 434.15330663 -146.875 428.0625 C-156.14032389 422.64352182 -165.44887288 417.30324113 -174.77435303 411.98883057 C-200.72756413 397.19489999 -200.72756413 397.19489999 -208.06074142 392.62763309 C-210.94126298 390.90547043 -210.94126298 390.90547043 -214.10811234 390.0184164 C-218.07046917 388.52305193 -220.19533859 387.2111396 -223 384 C-225.4065628 376.24945346 -224.51057373 367.5288711 -224.36230469 359.52172852 C-224.3589193 356.97885804 -224.36082078 354.43597583 -224.36761475 351.89311218 C-224.37034618 346.42097277 -224.33635448 340.95102926 -224.26876068 335.47934151 C-224.17110247 327.56879096 -224.13997083 319.6590699 -224.12490478 311.7479819 C-224.09866115 298.91232703 -224.01885885 286.07758891 -223.90527344 273.24243164 C-223.79507183 260.77665789 -223.71015785 248.31113342 -223.65917969 235.8449707 C-223.65602701 235.07616491 -223.65287432 234.30735911 -223.64962611 233.51525617 C-223.6339653 229.6582618 -223.61880089 225.80126566 -223.60388327 221.94426835 C-223.47954494 189.96217935 -223.26824439 157.98121709 -223 126 C-60.5 32.25 -60.5 32.25 -57.24658203 30.37304688 C-55.09128689 29.1295949 -52.93601327 27.88610564 -50.78076172 26.64257812 C-45.77662326 23.75537125 -40.7722948 20.8684957 -35.76715088 17.98303223 C-34.01658759 16.97380896 -32.26609589 15.96446164 -30.515625 14.95507812 C-28.33607835 13.6983234 -26.15640168 12.44179414 -23.9765625 11.18554688 C-22.47609375 10.32026367 -22.47609375 10.32026367 -20.9453125 9.4375 C-19.97239258 8.87933594 -18.99947266 8.32117187 -17.99707031 7.74609375 C-15.87840065 6.51175639 -13.774857 5.25128146 -11.68261719 3.97265625 C-10.60915039 3.32167969 -9.53568359 2.67070313 -8.4296875 2 C-7.46015137 1.401875 -6.49061523 0.80375 -5.49169922 0.1875 C-3 -1 -3 -1 0 0 Z " fill="#5ED990" transform="translate(257,1)"/>
<path d="M0 0 C72.6 0 145.2 0 220 0 C218.53195771 4.40412687 217.32284118 7.47882978 215.05078125 11.359375 C214.4578125 12.37902344 213.86484375 13.39867187 213.25390625 14.44921875 C212.61324219 15.53847656 211.97257813 16.62773437 211.3125 17.75 C210.63743361 18.90720972 209.96296538 20.06476857 209.2890625 21.22265625 C207.88984195 23.62570582 206.48807065 26.0272392 205.08447266 28.42773438 C201.86550616 33.93786845 198.68484971 39.47010358 195.5 45 C194.25146179 47.16415464 193.00276332 49.32821684 191.75390625 51.4921875 C189.23930564 55.85065388 186.72645339 60.21012191 184.21484375 64.5703125 C178.19252671 75.02206199 172.15330663 85.46299548 166.0625 95.875 C160.64041301 105.14563931 155.29675988 114.45936699 149.97976685 123.79046631 C144.81498754 132.85238935 139.58751472 141.87574842 134.31542969 150.87573242 C128.85630238 160.21046513 123.49652352 169.60108947 118.15234375 179.00195312 C117.50910156 180.13181641 116.86585938 181.26167969 116.203125 182.42578125 C115.63239258 183.43036377 115.06166016 184.43494629 114.47363281 185.4699707 C113.378021 187.3509888 112.20748873 189.18876691 111 191 C110.34 191 109.68 191 109 191 C75.25 132.5 75.25 132.5 73.37475586 129.24951172 C72.12564482 127.08442929 70.87645871 124.91939018 69.62719727 122.75439453 C66.48797691 117.31384294 63.35009437 111.87252784 60.21484375 106.4296875 C54.19252671 95.97793801 48.15330663 85.53700452 42.0625 75.125 C36.64413838 65.86073029 31.30349276 56.55375681 25.99084473 47.22866821 C20.58960238 37.74993707 15.1253062 28.30952177 9.60351562 18.90039062 C7.08104883 14.59664135 4.56939275 10.28679664 2.10546875 5.94921875 C1.6983667 5.23467529 1.29126465 4.52013184 0.87182617 3.78393555 C0 2 0 2 0 0 Z " fill="#9BF09C" transform="translate(146,192)"/>
<path d="M0 0 C6.18166287 1.62839106 11.31090634 4.94247095 16.75 8.1875 C18.91367549 9.46419778 21.07775166 10.74021671 23.2421875 12.015625 C24.35819336 12.67498047 25.47419922 13.33433594 26.62402344 14.01367188 C32.0212633 17.18925356 37.44764 20.3137656 42.875 23.4375 C45.05991376 24.69658348 47.24480949 25.95569823 49.4296875 27.21484375 C50.51475586 27.83987793 51.59982422 28.46491211 52.71777344 29.10888672 C58.14659942 32.23680148 63.57319281 35.36858448 69 38.5 C71.16665583 39.75001879 73.3333225 41.00001878 75.5 42.25 C105.83333333 59.75 136.16666667 77.25 166.5 94.75 C167.57378906 95.3694751 168.64757812 95.9889502 169.75390625 96.62719727 C171.9076172 97.86976019 174.06126367 99.11243489 176.21484375 100.35522461 C181.23684262 103.25314623 186.25942807 106.15003349 191.28442383 109.04275513 C193.05045522 110.05947198 194.81627431 111.07655658 196.58203125 112.09375 C198.78734155 113.36400873 200.99304216 114.63359018 203.19921875 115.90234375 C209.50633895 119.53640788 215.77255337 123.23098259 222 127 C219.60030318 129.65565787 217.03555811 131.27998553 213.93359375 133.046875 C212.90411621 133.63670166 211.87463867 134.22652832 210.81396484 134.83422852 C209.14261475 135.7825354 209.14261475 135.7825354 207.4375 136.75 C206.2674468 137.41867512 205.0976925 138.08787351 203.92822266 138.75756836 C201.49645633 140.14953254 199.06341756 141.53923202 196.62939453 142.92724609 C191.03377317 146.1201941 185.45468431 149.34180969 179.875 152.5625 C178.79774658 153.18358643 177.72049316 153.80467285 176.6105957 154.44458008 C169.43447516 158.5847118 162.27614253 162.75440857 155.125 166.9375 C146.02727621 172.25636948 136.89795864 177.51817931 127.75 182.75 C126.83133148 183.27604324 126.83133148 183.27604324 125.894104 183.81271362 C124.15407836 184.80868839 122.41299765 185.80281921 120.671875 186.796875 C119.17285645 187.65297363 119.17285645 187.65297363 117.64355469 188.52636719 C115.45319427 189.74736972 113.25477858 190.90405718 111 192 C106.63141722 185.66497404 102.73383884 179.16284177 99 172.4375 C94.47058863 164.35061753 89.87578837 156.30832514 85.1875 148.3125 C80.06750629 139.57396651 75.01353234 130.79985328 70 122 C64.46031101 112.27865901 58.86624937 102.59104908 53.21655273 92.93310547 C47.06233258 82.40915375 40.97630004 71.84619863 34.89111328 61.28222656 C32.38582055 56.93402678 29.87800679 52.58728416 27.36987305 48.24072266 C26.1301525 46.09213269 24.89072856 43.94337155 23.65161133 41.79443359 C20.73189098 36.73133028 17.80990632 31.66957388 14.87988281 26.61242676 C13.50081969 24.23187827 12.12304215 21.85058694 10.74536133 19.46923828 C9.77615342 17.7951735 8.80509435 16.12218088 7.83398438 14.44921875 C7.24423828 13.42957031 6.65449219 12.40992188 6.046875 11.359375 C5.52963867 10.46702148 5.01240234 9.57466797 4.47949219 8.65527344 C2.89503955 5.81162543 1.43548556 2.92128269 0 0 Z " fill="#9BF09D" transform="translate(256,0)"/>
<path d="M0 0 C73.26 0 146.52 0 222 0 C218.36720883 2.90623294 215.28033488 5.11720693 211.30078125 7.36328125 C210.18735352 7.99508301 209.07392578 8.62688477 207.92675781 9.27783203 C207.3385022 9.6089801 206.75024658 9.94012817 206.14416504 10.28131104 C203.63483426 11.69401158 201.13109703 13.11650093 198.62686157 14.53820801 C197.33106981 15.27366346 196.03498562 16.00860393 194.73861694 16.74304199 C188.39130314 20.33957763 182.06765637 23.97663388 175.75 27.625 C174.68031982 28.2422998 173.61063965 28.85959961 172.50854492 29.49560547 C165.3676989 33.62080188 158.24364533 37.77414246 151.125 41.9375 C141.85494485 47.35911495 132.5416835 52.70204857 123.21154785 58.01922607 C114.0871716 63.22045129 104.99867226 68.48027878 95.93310547 73.78344727 C85.40915375 79.93766742 74.84619863 86.02369996 64.28222656 92.10888672 C58.85340057 95.23680149 53.42681365 98.36859566 48 101.5 C45.85808102 102.73569114 43.71615391 103.97136817 41.57421875 105.20703125 C37.59537568 107.50249458 33.61669227 109.79823414 29.63821411 112.09432983 C27.84933082 113.12673478 26.06041283 114.15907956 24.27148438 115.19140625 C22.02662364 116.48685948 19.7818281 117.7824257 17.53710938 119.078125 C15.55498363 120.2219008 13.57213093 121.36441823 11.58837891 122.50537109 C9.98204251 123.43293112 8.37939541 124.36695074 6.78271484 125.31103516 C2.20923675 128 2.20923675 128 0 128 C0 85.76 0 43.52 0 0 Z " fill="#6CE49E" transform="translate(256,384)"/>
<path d="M0 0 C73.26 0 146.52 0 222 0 C222 42.24 222 84.48 222 128 C217.71543596 126.57181199 214.8089992 125.48701477 211.078125 123.26953125 C210.14887207 122.72176025 209.21961914 122.17398926 208.26220703 121.60961914 C207.26817871 121.01656982 206.27415039 120.42352051 205.25 119.8125 C203.08632451 118.53580222 200.92224834 117.25978329 198.7578125 115.984375 C197.64180664 115.32501953 196.52580078 114.66566406 195.37597656 113.98632812 C189.9787367 110.81074644 184.55236 107.6862344 179.125 104.5625 C176.94008624 103.30341652 174.75519051 102.04430177 172.5703125 100.78515625 C171.48524414 100.16012207 170.40017578 99.53508789 169.28222656 98.89111328 C163.85340058 95.76319852 158.42680719 92.63141552 153 89.5 C150.83334417 88.24998121 148.6666775 86.99998122 146.5 85.75 C142.16666667 83.25 137.83333333 80.75 133.5 78.25 C132.42733887 77.63116943 131.35467773 77.01233887 130.24951172 76.37475586 C128.08442929 75.12564482 125.91939018 73.87645871 123.75439453 72.62719727 C118.31384294 69.48797691 112.87252784 66.35009437 107.4296875 63.21484375 C96.97793801 57.19252671 86.53700452 51.15330663 76.125 45.0625 C66.85967611 39.64352182 57.55112712 34.30324113 48.22564697 28.98883057 C37.03614132 22.61055355 25.89558034 16.15022094 14.7890625 9.62841797 C12.74731401 8.43632567 10.69956895 7.25448774 8.6484375 6.07861328 C7.54757813 5.44552246 6.44671875 4.81243164 5.3125 4.16015625 C4.29800781 3.58015869 3.28351562 3.00016113 2.23828125 2.40258789 C1.49964844 1.93973389 0.76101562 1.47687988 0 1 C0 0.67 0 0.34 0 0 Z " fill="#52CF82" transform="translate(34,384)"/>
<path d="M0 0 C0.99 0.495 0.99 0.495 2 1 C-19.25 37.83333333 -40.5 74.66666667 -61.75 111.5 C-62.36883057 112.57266113 -62.98766113 113.64532227 -63.62524414 114.75048828 C-64.87435518 116.91557071 -66.12354129 119.08060982 -67.37280273 121.24560547 C-70.51202309 126.68615706 -73.64990563 132.12747216 -76.78515625 137.5703125 C-83.02127925 148.39364167 -89.27191602 159.20821351 -95.5625 170 C-96.12203369 170.9605127 -96.68156738 171.92102539 -97.25805664 172.91064453 C-100.79365186 178.96786099 -104.37754727 184.99433325 -108 191 C-112.13998234 190.40500425 -115.09334263 189.02258169 -118.69921875 186.9296875 C-120.36911865 185.96760376 -120.36911865 185.96760376 -122.07275391 184.98608398 C-123.27773761 184.28250636 -124.48265113 183.5788085 -125.6875 182.875 C-126.94411816 182.14786085 -128.20112306 181.42138967 -129.45849609 180.69555664 C-132.04627864 179.2003235 -134.63175689 177.7012215 -137.21533203 176.19873047 C-141.78168906 173.543811 -146.35964117 170.90913084 -150.93725586 168.27368164 C-154.14721667 166.42470291 -157.35515214 164.57225715 -160.5625 162.71875 C-164.89408507 160.2157051 -169.22744603 157.71578227 -173.5625 155.21875 C-178.95878533 152.11039035 -184.35206914 148.99687892 -189.74365234 145.88037109 C-191.96950906 144.59505482 -194.19644812 143.31161156 -196.42431641 142.02978516 C-199.76459484 140.10757182 -203.10136305 138.17938995 -206.4375 136.25 C-207.45666504 135.66532959 -208.47583008 135.08065918 -209.52587891 134.47827148 C-210.4647998 133.93372314 -211.4037207 133.3891748 -212.37109375 132.828125 C-213.19536865 132.3527832 -214.01964355 131.87744141 -214.86889648 131.38769531 C-216.86680513 130.08673155 -218.39593283 128.75318493 -220 127 C-57.5 33.25 -57.5 33.25 -54.24658203 31.37304688 C-52.09128689 30.1295949 -49.93601327 28.88610564 -47.78076172 27.64257812 C-42.77662326 24.75537125 -37.7722948 21.8684957 -32.76715088 18.98303223 C-31.01658759 17.97380896 -29.26609589 16.96446164 -27.515625 15.95507812 C-25.33607835 14.6983234 -23.15640168 13.44179414 -20.9765625 12.18554688 C-19.47609375 11.32026367 -19.47609375 11.32026367 -17.9453125 10.4375 C-16.97368164 9.87933594 -16.00205078 9.32117187 -15.00097656 8.74609375 C-12.87193948 7.50733088 -10.75523294 6.24726583 -8.64746094 4.97265625 C-7.5649707 4.32167969 -6.48248047 3.67070313 -5.3671875 3 C-4.3860498 2.401875 -3.40491211 1.80375 -2.39404297 1.1875 C-1.60400879 0.795625 -0.81397461 0.40375 0 0 Z " fill="#53CF82" transform="translate(254,0)"/>
<path d="M0 0 C7.90889133 3.95444567 15.54580824 7.94394641 23.125 12.4375 C25.23402286 13.67768236 27.34341061 14.91724438 29.453125 16.15625 C30.53142578 16.79046875 31.60972656 17.4246875 32.72070312 18.078125 C38.08994775 21.22484133 43.48210835 24.33153961 48.875 27.4375 C49.95265625 28.05866699 51.0303125 28.67983398 52.140625 29.31982422 C55.42677082 31.21375916 58.71332124 33.10699007 62 35 C78.696342 44.61649846 95.367655 54.27323048 112 64 C111.01 64.495 111.01 64.495 110 65 C109.29856284 66.65233415 108.63772109 68.32204468 108 70 C107.10624743 71.71934044 106.18209867 73.42309042 105.234375 75.11328125 C104.68144775 76.10126709 104.12852051 77.08925293 103.55883789 78.10717773 C102.96192139 79.16493408 102.36500488 80.22269043 101.75 81.3125 C101.12665771 82.42117432 100.50331543 83.52984863 99.86108398 84.67211914 C94.52126695 94.13940877 89.05876975 103.53299965 83.5625 112.91015625 C79.8678669 119.21570419 76.21147319 125.54294436 72.5625 131.875 C71.93996338 132.95515381 71.31742676 134.03530762 70.67602539 135.14819336 C69.41423174 137.33796334 68.15259466 139.52782355 66.89111328 141.71777344 C63.76319852 147.14659942 60.63141552 152.57319281 57.5 158 C56.24998121 160.16665583 54.99998122 162.3333225 53.75 164.5 C46.25 177.5 38.75 190.5 31.25 203.5 C30.63036377 204.57411133 30.01072754 205.64822266 29.37231445 206.75488281 C28.13152967 208.90542543 26.89048465 211.05581792 25.64916992 213.20605469 C22.72980526 218.26377813 19.81303791 223.32294493 16.90567017 228.38757324 C15.53825234 230.76923502 14.16932961 233.1500302 12.80029297 235.53076172 C11.83935447 237.20326021 10.88058328 238.87700336 9.921875 240.55078125 C3.9957026 250.85320404 3.9957026 250.85320404 1 255 C0.67 255 0.34 255 0 255 C0 170.85 0 86.7 0 0 Z " fill="#6CE39D" transform="translate(34,128)"/>
<path d="M0 0 C0 84.15 0 168.3 0 255 C-3.22265038 251.77734962 -4.87134996 249.81587437 -6.9609375 245.984375 C-7.50733887 244.99332764 -8.05374023 244.00228027 -8.61669922 242.98120117 C-9.19693848 241.91490479 -9.77717773 240.8486084 -10.375 239.75 C-11.63360283 237.46905029 -12.89406605 235.18912627 -14.15625 232.91015625 C-14.47689423 232.33022415 -14.79753845 231.75029205 -15.12789917 231.15278625 C-18.29019537 225.44633285 -21.57034754 219.81231951 -24.875 214.1875 C-29.97646869 205.49184742 -35.00994479 196.75985385 -40 188 C-45.53953103 178.27857016 -51.13375187 168.59104696 -56.78344727 158.93310547 C-62.93766742 148.40915375 -69.02369996 137.84619863 -75.10888672 127.28222656 C-78.23680147 121.85340061 -81.36854843 116.42678636 -84.5 111 C-88.04120203 104.86288313 -91.5821511 98.72562239 -95.12011719 92.5866394 C-96.49806938 90.19573403 -97.87634172 87.80501328 -99.25463867 85.41430664 C-100.22540982 83.73016037 -101.19571874 82.04574769 -102.16601562 80.36132812 C-102.75576172 79.33845703 -103.34550781 78.31558594 -103.953125 77.26171875 C-104.47036133 76.36412842 -104.98759766 75.46653809 -105.52050781 74.54174805 C-106.54826225 72.7760795 -107.60740082 71.02845695 -108.69042969 69.29614258 C-110 67 -110 67 -110 65 C-110.66 65 -111.32 65 -112 65 C-110.60916759 62.21833519 -108.84755854 61.69037759 -106.10546875 60.25 C-105.10563965 59.71761719 -104.10581055 59.18523437 -103.07568359 58.63671875 C-102.06070801 58.09660156 -101.04573242 57.55648437 -100 57 C-96.42582812 55.02065952 -92.86902484 53.01085154 -89.3125 51 C-87.83100464 50.16251221 -87.83100464 50.16251221 -86.31958008 49.30810547 C-78.23837404 44.72690555 -70.20742938 40.06286696 -62.19018555 35.37084961 C-52.70629618 29.82081428 -43.19024507 24.32759937 -33.66796875 18.84375 C-29.6001085 16.50089533 -25.53530363 14.15291613 -21.47442627 11.79798889 C-19.04774161 10.39080544 -16.62017349 8.98514985 -14.19256592 7.57955933 C-12.46428102 6.57801958 -10.73725706 5.57430495 -9.01025391 4.57055664 C-7.45636963 3.6713147 -7.45636963 3.6713147 -5.87109375 2.75390625 C-4.95255615 2.22095947 -4.03401855 1.6880127 -3.08764648 1.13891602 C-1 0 -1 0 0 0 Z " fill="#6DE39D" transform="translate(478,128)"/>
</svg>
